<?xml version="1.0" encoding="utf-8" standalone="no"?>
<!DOCTYPE svg PUBLIC "-//W3C//DTD SVG 1.1//EN"
  "http://www.w3.org/Graphics/SVG/1.1/DTD/svg11.dtd">
<svg xmlns:xlink="http://www.w3.org/1999/xlink" width="648pt" height="792pt" viewBox="0 0 648 792" xmlns="http://www.w3.org/2000/svg" version="1.1">
 <metadata>
  <rdf:RDF xmlns:dc="http://purl.org/dc/elements/1.1/" xmlns:cc="http://creativecommons.org/ns#" xmlns:rdf="http://www.w3.org/1999/02/22-rdf-syntax-ns#">
   <cc:Work>
    <dc:type rdf:resource="http://purl.org/dc/dcmitype/StillImage"/>
    <dc:date>2026-05-15T17:03:02.438839</dc:date>
    <dc:format>image/svg+xml</dc:format>
    <dc:creator>
     <cc:Agent>
      <dc:title>Matplotlib v3.10.6, https://matplotlib.org/</dc:title>
     </cc:Agent>
    </dc:creator>
   </cc:Work>
  </rdf:RDF>
 </metadata>
 <defs>
  <style type="text/css">*{stroke-linejoin: round; stroke-linecap: butt}</style>
 </defs>
 <g id="figure_1">
  <g id="patch_1">
   <path d="M 0 792 
L 648 792 
L 648 0 
L 0 0 
z
" style="fill: #16161c"/>
  </g>
  <g id="axes_1">
   <g id="patch_2">
    <path d="M 98.559 435.6 
L 123.201 435.6 
L 123.201 414.289733 
L 98.559 414.289733 
z
" clip-path="url(#p8b28e472e8)" style="fill: #f2ede1"/>
   </g>
   <g id="patch_3">
    <path d="M 131.859 435.6 
L 156.501 435.6 
L 156.501 423.208039 
L 131.859 423.208039 
z
" clip-path="url(#p8b28e472e8)" style="fill: #f2ede1"/>
   </g>
   <g id="patch_4">
    <path d="M 165.159 435.6 
L 189.801 435.6 
L 189.801 435.6 
L 165.159 435.6 
z
" clip-path="url(#p8b28e472e8)" style="fill: #f2ede1"/>
   </g>
   <g id="patch_5">
    <path d="M 198.459 435.6 
L 223.101 435.6 
L 223.101 398.519766 
L 198.459 398.519766 
z
" clip-path="url(#p8b28e472e8)" style="fill: #f2ede1"/>
   </g>
   <g id="patch_6">
    <path d="M 231.759 435.6 
L 256.401 435.6 
L 256.401 426.991393 
L 231.759 426.991393 
z
" clip-path="url(#p8b28e472e8)" style="fill: #f2ede1"/>
   </g>
   <g id="patch_7">
    <path d="M 265.059 435.6 
L 289.701 435.6 
L 289.701 346.508953 
L 265.059 346.508953 
z
" clip-path="url(#p8b28e472e8)" style="fill: #f2ede1"/>
   </g>
   <g id="patch_8">
    <path d="M 298.359 435.6 
L 323.001 435.6 
L 323.001 339.612108 
L 298.359 339.612108 
z
" clip-path="url(#p8b28e472e8)" style="fill: #f2ede1"/>
   </g>
   <g id="patch_9">
    <path d="M 331.659 435.6 
L 356.301 435.6 
L 356.301 311.785606 
L 331.659 311.785606 
z
" clip-path="url(#p8b28e472e8)" style="fill: #f2ede1"/>
   </g>
   <g id="patch_10">
    <path d="M 364.959 435.6 
L 389.601 435.6 
L 389.601 247.667797 
L 364.959 247.667797 
z
" clip-path="url(#p8b28e472e8)" style="fill: #e4513f"/>
   </g>
   <g id="patch_11">
    <path d="M 398.259 435.6 
L 422.901 435.6 
L 422.901 364.078083 
L 398.259 364.078083 
z
" clip-path="url(#p8b28e472e8)" style="fill: #f2ede1"/>
   </g>
   <g id="patch_12">
    <path d="M 431.559 435.6 
L 456.201 435.6 
L 456.201 373.500024 
L 431.559 373.500024 
z
" clip-path="url(#p8b28e472e8)" style="fill: #f2ede1"/>
   </g>
   <g id="line2d_1">
    <path d="M 84.24 435.6 
L 563.76 435.6 
" clip-path="url(#p8b28e472e8)" style="fill: none; stroke: #f2ede1; stroke-width: 1.4; stroke-linecap: square"/>
   </g>
   <g id="patch_13">
    <path d="M 469.194016 351.030508 
Q 500.492552 351.030508 529.331414 351.030508 
" style="fill: none; stroke: #e4513f; stroke-width: 2.2; stroke-linecap: round"/>
    <path d="M 525.331414 349.030508 
L 529.331414 351.030508 
L 525.331414 353.030508 
z
" style="fill: #e4513f; stroke: #e4513f; stroke-width: 2.2; stroke-linecap: round"/>
   </g>
   <g id="text_1">
    <!-- RACE -->
    <g style="fill: #e4513f" transform="translate(540.45 354.065821) scale(0.11 -0.11)">
     <defs>
      <path id="DejaVuSans-Bold-52" d="M 2297 2597 
Q 2675 2597 2839 2737 
Q 3003 2878 3003 3200 
Q 3003 3519 2839 3656 
Q 2675 3794 2297 3794 
L 1791 3794 
L 1791 2597 
L 2297 2597 
z
M 1791 1766 
L 1791 0 
L 588 0 
L 588 4666 
L 2425 4666 
Q 3347 4666 3776 4356 
Q 4206 4047 4206 3378 
Q 4206 2916 3982 2619 
Q 3759 2322 3309 2181 
Q 3556 2125 3751 1926 
Q 3947 1728 4147 1325 
L 4800 0 
L 3519 0 
L 2950 1159 
Q 2778 1509 2601 1637 
Q 2425 1766 2131 1766 
L 1791 1766 
z
" transform="scale(0.015625)"/>
      <path id="DejaVuSans-Bold-41" d="M 3419 850 
L 1538 850 
L 1241 0 
L 31 0 
L 1759 4666 
L 3194 4666 
L 4922 0 
L 3713 0 
L 3419 850 
z
M 1838 1716 
L 3116 1716 
L 2478 3572 
L 1838 1716 
z
" transform="scale(0.015625)"/>
      <path id="DejaVuSans-Bold-43" d="M 4288 256 
Q 3956 84 3597 -3 
Q 3238 -91 2847 -91 
Q 1681 -91 1000 561 
Q 319 1213 319 2328 
Q 319 3447 1000 4098 
Q 1681 4750 2847 4750 
Q 3238 4750 3597 4662 
Q 3956 4575 4288 4403 
L 4288 3438 
Q 3953 3666 3628 3772 
Q 3303 3878 2944 3878 
Q 2300 3878 1931 3465 
Q 1563 3053 1563 2328 
Q 1563 1606 1931 1193 
Q 2300 781 2944 781 
Q 3303 781 3628 887 
Q 3953 994 4288 1222 
L 4288 256 
z
" transform="scale(0.015625)"/>
      <path id="DejaVuSans-Bold-45" d="M 588 4666 
L 3834 4666 
L 3834 3756 
L 1791 3756 
L 1791 2888 
L 3713 2888 
L 3713 1978 
L 1791 1978 
L 1791 909 
L 3903 909 
L 3903 0 
L 588 0 
L 588 4666 
z
" transform="scale(0.015625)"/>
     </defs>
     <use xlink:href="#DejaVuSans-Bold-52"/>
     <use xlink:href="#DejaVuSans-Bold-41" transform="translate(77.001953 0)"/>
     <use xlink:href="#DejaVuSans-Bold-43" transform="translate(154.394531 0)"/>
     <use xlink:href="#DejaVuSans-Bold-45" transform="translate(227.783203 0)"/>
    </g>
   </g>
  </g>
  <g id="line2d_2">
   <path d="M 194.4 629.64 
L 453.6 629.64 
" style="fill: none; stroke: #f2ede1; stroke-opacity: 0.45; stroke-linecap: square"/>
  </g>
  <g id="text_2">
   <!-- M A R A T H O N   D U   M O N T - B L A N C -->
   <g style="fill: #e4513f" transform="translate(181.850625 79.2) scale(0.12 -0.12)">
    <defs>
     <path id="DejaVuSans-Bold-4d" d="M 588 4666 
L 2119 4666 
L 3181 2169 
L 4250 4666 
L 5778 4666 
L 5778 0 
L 4641 0 
L 4641 3413 
L 3566 897 
L 2803 897 
L 1728 3413 
L 1728 0 
L 588 0 
L 588 4666 
z
" transform="scale(0.015625)"/>
     <path id="DejaVuSans-Bold-20" transform="scale(0.015625)"/>
     <path id="DejaVuSans-Bold-54" d="M 31 4666 
L 4331 4666 
L 4331 3756 
L 2784 3756 
L 2784 0 
L 1581 0 
L 1581 3756 
L 31 3756 
L 31 4666 
z
" transform="scale(0.015625)"/>
     <path id="DejaVuSans-Bold-48" d="M 588 4666 
L 1791 4666 
L 1791 2888 
L 3566 2888 
L 3566 4666 
L 4769 4666 
L 4769 0 
L 3566 0 
L 3566 1978 
L 1791 1978 
L 1791 0 
L 588 0 
L 588 4666 
z
" transform="scale(0.015625)"/>
     <path id="DejaVuSans-Bold-4f" d="M 2719 3878 
Q 2169 3878 1866 3472 
Q 1563 3066 1563 2328 
Q 1563 1594 1866 1187 
Q 2169 781 2719 781 
Q 3272 781 3575 1187 
Q 3878 1594 3878 2328 
Q 3878 3066 3575 3472 
Q 3272 3878 2719 3878 
z
M 2719 4750 
Q 3844 4750 4481 4106 
Q 5119 3463 5119 2328 
Q 5119 1197 4481 553 
Q 3844 -91 2719 -91 
Q 1597 -91 958 553 
Q 319 1197 319 2328 
Q 319 3463 958 4106 
Q 1597 4750 2719 4750 
z
" transform="scale(0.015625)"/>
     <path id="DejaVuSans-Bold-4e" d="M 588 4666 
L 1931 4666 
L 3628 1466 
L 3628 4666 
L 4769 4666 
L 4769 0 
L 3425 0 
L 1728 3200 
L 1728 0 
L 588 0 
L 588 4666 
z
" transform="scale(0.015625)"/>
     <path id="DejaVuSans-Bold-44" d="M 1791 3756 
L 1791 909 
L 2222 909 
Q 2959 909 3348 1275 
Q 3738 1641 3738 2338 
Q 3738 3031 3350 3393 
Q 2963 3756 2222 3756 
L 1791 3756 
z
M 588 4666 
L 1856 4666 
Q 2919 4666 3439 4514 
Q 3959 4363 4331 4000 
Q 4659 3684 4818 3271 
Q 4978 2859 4978 2338 
Q 4978 1809 4818 1395 
Q 4659 981 4331 666 
Q 3956 303 3431 151 
Q 2906 0 1856 0 
L 588 0 
L 588 4666 
z
" transform="scale(0.015625)"/>
     <path id="DejaVuSans-Bold-55" d="M 588 4666 
L 1791 4666 
L 1791 1869 
Q 1791 1291 1980 1042 
Q 2169 794 2597 794 
Q 3028 794 3217 1042 
Q 3406 1291 3406 1869 
L 3406 4666 
L 4609 4666 
L 4609 1869 
Q 4609 878 4112 393 
Q 3616 -91 2597 -91 
Q 1581 -91 1084 393 
Q 588 878 588 1869 
L 588 4666 
z
" transform="scale(0.015625)"/>
     <path id="DejaVuSans-Bold-2d" d="M 347 2297 
L 2309 2297 
L 2309 1388 
L 347 1388 
L 347 2297 
z
" transform="scale(0.015625)"/>
     <path id="DejaVuSans-Bold-42" d="M 2456 2859 
Q 2741 2859 2887 2984 
Q 3034 3109 3034 3353 
Q 3034 3594 2887 3720 
Q 2741 3847 2456 3847 
L 1791 3847 
L 1791 2859 
L 2456 2859 
z
M 2497 819 
Q 2859 819 3042 972 
Q 3225 1125 3225 1434 
Q 3225 1738 3044 1889 
Q 2863 2041 2497 2041 
L 1791 2041 
L 1791 819 
L 2497 819 
z
M 3616 2497 
Q 4003 2384 4215 2081 
Q 4428 1778 4428 1338 
Q 4428 663 3972 331 
Q 3516 0 2584 0 
L 588 0 
L 588 4666 
L 2394 4666 
Q 3366 4666 3802 4372 
Q 4238 4078 4238 3431 
Q 4238 3091 4078 2852 
Q 3919 2613 3616 2497 
z
" transform="scale(0.015625)"/>
     <path id="DejaVuSans-Bold-4c" d="M 588 4666 
L 1791 4666 
L 1791 909 
L 3903 909 
L 3903 0 
L 588 0 
L 588 4666 
z
" transform="scale(0.015625)"/>
    </defs>
    <use xlink:href="#DejaVuSans-Bold-4d"/>
    <use xlink:href="#DejaVuSans-Bold-20" transform="translate(99.511719 0)"/>
    <use xlink:href="#DejaVuSans-Bold-41" transform="translate(134.326172 0)"/>
    <use xlink:href="#DejaVuSans-Bold-20" transform="translate(211.71875 0)"/>
    <use xlink:href="#DejaVuSans-Bold-52" transform="translate(246.533203 0)"/>
    <use xlink:href="#DejaVuSans-Bold-20" transform="translate(323.535156 0)"/>
    <use xlink:href="#DejaVuSans-Bold-41" transform="translate(358.349609 0)"/>
    <use xlink:href="#DejaVuSans-Bold-20" transform="translate(435.742188 0)"/>
    <use xlink:href="#DejaVuSans-Bold-54" transform="translate(470.556641 0)"/>
    <use xlink:href="#DejaVuSans-Bold-20" transform="translate(538.769531 0)"/>
    <use xlink:href="#DejaVuSans-Bold-48" transform="translate(573.583984 0)"/>
    <use xlink:href="#DejaVuSans-Bold-20" transform="translate(657.275391 0)"/>
    <use xlink:href="#DejaVuSans-Bold-4f" transform="translate(692.089844 0)"/>
    <use xlink:href="#DejaVuSans-Bold-20" transform="translate(777.099609 0)"/>
    <use xlink:href="#DejaVuSans-Bold-4e" transform="translate(811.914062 0)"/>
    <use xlink:href="#DejaVuSans-Bold-20" transform="translate(895.605469 0)"/>
    <use xlink:href="#DejaVuSans-Bold-20" transform="translate(930.419922 0)"/>
    <use xlink:href="#DejaVuSans-Bold-20" transform="translate(965.234375 0)"/>
    <use xlink:href="#DejaVuSans-Bold-44" transform="translate(1000.048828 0)"/>
    <use xlink:href="#DejaVuSans-Bold-20" transform="translate(1083.056641 0)"/>
    <use xlink:href="#DejaVuSans-Bold-55" transform="translate(1117.871094 0)"/>
    <use xlink:href="#DejaVuSans-Bold-20" transform="translate(1199.072266 0)"/>
    <use xlink:href="#DejaVuSans-Bold-20" transform="translate(1233.886719 0)"/>
    <use xlink:href="#DejaVuSans-Bold-20" transform="translate(1268.701172 0)"/>
    <use xlink:href="#DejaVuSans-Bold-4d" transform="translate(1303.515625 0)"/>
    <use xlink:href="#DejaVuSans-Bold-20" transform="translate(1403.027344 0)"/>
    <use xlink:href="#DejaVuSans-Bold-4f" transform="translate(1437.841797 0)"/>
    <use xlink:href="#DejaVuSans-Bold-20" transform="translate(1522.851562 0)"/>
    <use xlink:href="#DejaVuSans-Bold-4e" transform="translate(1557.666016 0)"/>
    <use xlink:href="#DejaVuSans-Bold-20" transform="translate(1641.357422 0)"/>
    <use xlink:href="#DejaVuSans-Bold-54" transform="translate(1676.171875 0)"/>
    <use xlink:href="#DejaVuSans-Bold-20" transform="translate(1744.384766 0)"/>
    <use xlink:href="#DejaVuSans-Bold-2d" transform="translate(1779.199219 0)"/>
    <use xlink:href="#DejaVuSans-Bold-20" transform="translate(1820.703125 0)"/>
    <use xlink:href="#DejaVuSans-Bold-42" transform="translate(1855.517578 0)"/>
    <use xlink:href="#DejaVuSans-Bold-20" transform="translate(1931.738281 0)"/>
    <use xlink:href="#DejaVuSans-Bold-4c" transform="translate(1966.552734 0)"/>
    <use xlink:href="#DejaVuSans-Bold-20" transform="translate(2030.273438 0)"/>
    <use xlink:href="#DejaVuSans-Bold-41" transform="translate(2065.087891 0)"/>
    <use xlink:href="#DejaVuSans-Bold-20" transform="translate(2142.480469 0)"/>
    <use xlink:href="#DejaVuSans-Bold-4e" transform="translate(2177.294922 0)"/>
    <use xlink:href="#DejaVuSans-Bold-20" transform="translate(2260.986328 0)"/>
    <use xlink:href="#DejaVuSans-Bold-43" transform="translate(2295.800781 0)"/>
   </g>
  </g>
  <g id="text_3">
   <!-- THE WORK -->
   <g style="fill: #f2ede1" transform="translate(124.406719 138.6) scale(0.66 -0.66)">
    <defs>
     <path id="DejaVuSans-Bold-57" d="M 191 4666 
L 1344 4666 
L 2150 1275 
L 2950 4666 
L 4109 4666 
L 4909 1275 
L 5716 4666 
L 6859 4666 
L 5759 0 
L 4372 0 
L 3525 3547 
L 2688 0 
L 1300 0 
L 191 4666 
z
" transform="scale(0.015625)"/>
     <path id="DejaVuSans-Bold-4b" d="M 588 4666 
L 1791 4666 
L 1791 2963 
L 3525 4666 
L 4922 4666 
L 2675 2456 
L 5153 0 
L 3647 0 
L 1791 1838 
L 1791 0 
L 588 0 
L 588 4666 
z
" transform="scale(0.015625)"/>
    </defs>
    <use xlink:href="#DejaVuSans-Bold-54"/>
    <use xlink:href="#DejaVuSans-Bold-48" transform="translate(68.212891 0)"/>
    <use xlink:href="#DejaVuSans-Bold-45" transform="translate(151.904297 0)"/>
    <use xlink:href="#DejaVuSans-Bold-20" transform="translate(220.214844 0)"/>
    <use xlink:href="#DejaVuSans-Bold-57" transform="translate(255.029297 0)"/>
    <use xlink:href="#DejaVuSans-Bold-4f" transform="translate(365.332031 0)"/>
    <use xlink:href="#DejaVuSans-Bold-52" transform="translate(450.341797 0)"/>
    <use xlink:href="#DejaVuSans-Bold-4b" transform="translate(527.34375 0)"/>
   </g>
  </g>
  <g id="text_4">
   <!-- W E E K L Y   K I L O M E T R E S   ·   S I N C E   1   M A R C H -->
   <g style="fill: #f2ede1; opacity: 0.6" transform="translate(182.204336 463.32) scale(0.095 -0.095)">
    <defs>
     <path id="DejaVuSans-57" d="M 213 4666 
L 850 4666 
L 1831 722 
L 2809 4666 
L 3519 4666 
L 4500 722 
L 5478 4666 
L 6119 4666 
L 4947 0 
L 4153 0 
L 3169 4050 
L 2175 0 
L 1381 0 
L 213 4666 
z
" transform="scale(0.015625)"/>
     <path id="DejaVuSans-20" transform="scale(0.015625)"/>
     <path id="DejaVuSans-45" d="M 628 4666 
L 3578 4666 
L 3578 4134 
L 1259 4134 
L 1259 2753 
L 3481 2753 
L 3481 2222 
L 1259 2222 
L 1259 531 
L 3634 531 
L 3634 0 
L 628 0 
L 628 4666 
z
" transform="scale(0.015625)"/>
     <path id="DejaVuSans-4b" d="M 628 4666 
L 1259 4666 
L 1259 2694 
L 3353 4666 
L 4166 4666 
L 1850 2491 
L 4331 0 
L 3500 0 
L 1259 2247 
L 1259 0 
L 628 0 
L 628 4666 
z
" transform="scale(0.015625)"/>
     <path id="DejaVuSans-4c" d="M 628 4666 
L 1259 4666 
L 1259 531 
L 3531 531 
L 3531 0 
L 628 0 
L 628 4666 
z
" transform="scale(0.015625)"/>
     <path id="DejaVuSans-59" d="M -13 4666 
L 666 4666 
L 1959 2747 
L 3244 4666 
L 3922 4666 
L 2272 2222 
L 2272 0 
L 1638 0 
L 1638 2222 
L -13 4666 
z
" transform="scale(0.015625)"/>
     <path id="DejaVuSans-49" d="M 628 4666 
L 1259 4666 
L 1259 0 
L 628 0 
L 628 4666 
z
" transform="scale(0.015625)"/>
     <path id="DejaVuSans-4f" d="M 2522 4238 
Q 1834 4238 1429 3725 
Q 1025 3213 1025 2328 
Q 1025 1447 1429 934 
Q 1834 422 2522 422 
Q 3209 422 3611 934 
Q 4013 1447 4013 2328 
Q 4013 3213 3611 3725 
Q 3209 4238 2522 4238 
z
M 2522 4750 
Q 3503 4750 4090 4092 
Q 4678 3434 4678 2328 
Q 4678 1225 4090 567 
Q 3503 -91 2522 -91 
Q 1538 -91 948 565 
Q 359 1222 359 2328 
Q 359 3434 948 4092 
Q 1538 4750 2522 4750 
z
" transform="scale(0.015625)"/>
     <path id="DejaVuSans-4d" d="M 628 4666 
L 1569 4666 
L 2759 1491 
L 3956 4666 
L 4897 4666 
L 4897 0 
L 4281 0 
L 4281 4097 
L 3078 897 
L 2444 897 
L 1241 4097 
L 1241 0 
L 628 0 
L 628 4666 
z
" transform="scale(0.015625)"/>
     <path id="DejaVuSans-54" d="M -19 4666 
L 3928 4666 
L 3928 4134 
L 2272 4134 
L 2272 0 
L 1638 0 
L 1638 4134 
L -19 4134 
L -19 4666 
z
" transform="scale(0.015625)"/>
     <path id="DejaVuSans-52" d="M 2841 2188 
Q 3044 2119 3236 1894 
Q 3428 1669 3622 1275 
L 4263 0 
L 3584 0 
L 2988 1197 
Q 2756 1666 2539 1819 
Q 2322 1972 1947 1972 
L 1259 1972 
L 1259 0 
L 628 0 
L 628 4666 
L 2053 4666 
Q 2853 4666 3247 4331 
Q 3641 3997 3641 3322 
Q 3641 2881 3436 2590 
Q 3231 2300 2841 2188 
z
M 1259 4147 
L 1259 2491 
L 2053 2491 
Q 2509 2491 2742 2702 
Q 2975 2913 2975 3322 
Q 2975 3731 2742 3939 
Q 2509 4147 2053 4147 
L 1259 4147 
z
" transform="scale(0.015625)"/>
     <path id="DejaVuSans-53" d="M 3425 4513 
L 3425 3897 
Q 3066 4069 2747 4153 
Q 2428 4238 2131 4238 
Q 1616 4238 1336 4038 
Q 1056 3838 1056 3469 
Q 1056 3159 1242 3001 
Q 1428 2844 1947 2747 
L 2328 2669 
Q 3034 2534 3370 2195 
Q 3706 1856 3706 1288 
Q 3706 609 3251 259 
Q 2797 -91 1919 -91 
Q 1588 -91 1214 -16 
Q 841 59 441 206 
L 441 856 
Q 825 641 1194 531 
Q 1563 422 1919 422 
Q 2459 422 2753 634 
Q 3047 847 3047 1241 
Q 3047 1584 2836 1778 
Q 2625 1972 2144 2069 
L 1759 2144 
Q 1053 2284 737 2584 
Q 422 2884 422 3419 
Q 422 4038 858 4394 
Q 1294 4750 2059 4750 
Q 2388 4750 2728 4690 
Q 3069 4631 3425 4513 
z
" transform="scale(0.015625)"/>
     <path id="DejaVuSans-b7" d="M 684 2619 
L 1344 2619 
L 1344 1825 
L 684 1825 
L 684 2619 
z
" transform="scale(0.015625)"/>
     <path id="DejaVuSans-4e" d="M 628 4666 
L 1478 4666 
L 3547 763 
L 3547 4666 
L 4159 4666 
L 4159 0 
L 3309 0 
L 1241 3903 
L 1241 0 
L 628 0 
L 628 4666 
z
" transform="scale(0.015625)"/>
     <path id="DejaVuSans-43" d="M 4122 4306 
L 4122 3641 
Q 3803 3938 3442 4084 
Q 3081 4231 2675 4231 
Q 1875 4231 1450 3742 
Q 1025 3253 1025 2328 
Q 1025 1406 1450 917 
Q 1875 428 2675 428 
Q 3081 428 3442 575 
Q 3803 722 4122 1019 
L 4122 359 
Q 3791 134 3420 21 
Q 3050 -91 2638 -91 
Q 1578 -91 968 557 
Q 359 1206 359 2328 
Q 359 3453 968 4101 
Q 1578 4750 2638 4750 
Q 3056 4750 3426 4639 
Q 3797 4528 4122 4306 
z
" transform="scale(0.015625)"/>
     <path id="DejaVuSans-31" d="M 794 531 
L 1825 531 
L 1825 4091 
L 703 3866 
L 703 4441 
L 1819 4666 
L 2450 4666 
L 2450 531 
L 3481 531 
L 3481 0 
L 794 0 
L 794 531 
z
" transform="scale(0.015625)"/>
     <path id="DejaVuSans-41" d="M 2188 4044 
L 1331 1722 
L 3047 1722 
L 2188 4044 
z
M 1831 4666 
L 2547 4666 
L 4325 0 
L 3669 0 
L 3244 1197 
L 1141 1197 
L 716 0 
L 50 0 
L 1831 4666 
z
" transform="scale(0.015625)"/>
     <path id="DejaVuSans-48" d="M 628 4666 
L 1259 4666 
L 1259 2753 
L 3553 2753 
L 3553 4666 
L 4184 4666 
L 4184 0 
L 3553 0 
L 3553 2222 
L 1259 2222 
L 1259 0 
L 628 0 
L 628 4666 
z
" transform="scale(0.015625)"/>
    </defs>
    <use xlink:href="#DejaVuSans-57"/>
    <use xlink:href="#DejaVuSans-20" transform="translate(98.876953 0)"/>
    <use xlink:href="#DejaVuSans-45" transform="translate(130.664062 0)"/>
    <use xlink:href="#DejaVuSans-20" transform="translate(193.847656 0)"/>
    <use xlink:href="#DejaVuSans-45" transform="translate(225.634766 0)"/>
    <use xlink:href="#DejaVuSans-20" transform="translate(288.818359 0)"/>
    <use xlink:href="#DejaVuSans-4b" transform="translate(320.605469 0)"/>
    <use xlink:href="#DejaVuSans-20" transform="translate(386.181641 0)"/>
    <use xlink:href="#DejaVuSans-4c" transform="translate(417.96875 0)"/>
    <use xlink:href="#DejaVuSans-20" transform="translate(473.681641 0)"/>
    <use xlink:href="#DejaVuSans-59" transform="translate(505.46875 0)"/>
    <use xlink:href="#DejaVuSans-20" transform="translate(566.552734 0)"/>
    <use xlink:href="#DejaVuSans-20" transform="translate(598.339844 0)"/>
    <use xlink:href="#DejaVuSans-20" transform="translate(630.126953 0)"/>
    <use xlink:href="#DejaVuSans-4b" transform="translate(661.914062 0)"/>
    <use xlink:href="#DejaVuSans-20" transform="translate(727.490234 0)"/>
    <use xlink:href="#DejaVuSans-49" transform="translate(759.277344 0)"/>
    <use xlink:href="#DejaVuSans-20" transform="translate(788.769531 0)"/>
    <use xlink:href="#DejaVuSans-4c" transform="translate(820.556641 0)"/>
    <use xlink:href="#DejaVuSans-20" transform="translate(876.269531 0)"/>
    <use xlink:href="#DejaVuSans-4f" transform="translate(908.056641 0)"/>
    <use xlink:href="#DejaVuSans-20" transform="translate(986.767578 0)"/>
    <use xlink:href="#DejaVuSans-4d" transform="translate(1018.554688 0)"/>
    <use xlink:href="#DejaVuSans-20" transform="translate(1104.833984 0)"/>
    <use xlink:href="#DejaVuSans-45" transform="translate(1136.621094 0)"/>
    <use xlink:href="#DejaVuSans-20" transform="translate(1199.804688 0)"/>
    <use xlink:href="#DejaVuSans-54" transform="translate(1231.591797 0)"/>
    <use xlink:href="#DejaVuSans-20" transform="translate(1292.675781 0)"/>
    <use xlink:href="#DejaVuSans-52" transform="translate(1324.462891 0)"/>
    <use xlink:href="#DejaVuSans-20" transform="translate(1393.945312 0)"/>
    <use xlink:href="#DejaVuSans-45" transform="translate(1425.732422 0)"/>
    <use xlink:href="#DejaVuSans-20" transform="translate(1488.916016 0)"/>
    <use xlink:href="#DejaVuSans-53" transform="translate(1520.703125 0)"/>
    <use xlink:href="#DejaVuSans-20" transform="translate(1584.179688 0)"/>
    <use xlink:href="#DejaVuSans-20" transform="translate(1615.966797 0)"/>
    <use xlink:href="#DejaVuSans-20" transform="translate(1647.753906 0)"/>
    <use xlink:href="#DejaVuSans-b7" transform="translate(1679.541016 0)"/>
    <use xlink:href="#DejaVuSans-20" transform="translate(1711.328125 0)"/>
    <use xlink:href="#DejaVuSans-20" transform="translate(1743.115234 0)"/>
    <use xlink:href="#DejaVuSans-20" transform="translate(1774.902344 0)"/>
    <use xlink:href="#DejaVuSans-53" transform="translate(1806.689453 0)"/>
    <use xlink:href="#DejaVuSans-20" transform="translate(1870.166016 0)"/>
    <use xlink:href="#DejaVuSans-49" transform="translate(1901.953125 0)"/>
    <use xlink:href="#DejaVuSans-20" transform="translate(1931.445312 0)"/>
    <use xlink:href="#DejaVuSans-4e" transform="translate(1963.232422 0)"/>
    <use xlink:href="#DejaVuSans-20" transform="translate(2038.037109 0)"/>
    <use xlink:href="#DejaVuSans-43" transform="translate(2069.824219 0)"/>
    <use xlink:href="#DejaVuSans-20" transform="translate(2139.648438 0)"/>
    <use xlink:href="#DejaVuSans-45" transform="translate(2171.435547 0)"/>
    <use xlink:href="#DejaVuSans-20" transform="translate(2234.619141 0)"/>
    <use xlink:href="#DejaVuSans-20" transform="translate(2266.40625 0)"/>
    <use xlink:href="#DejaVuSans-20" transform="translate(2298.193359 0)"/>
    <use xlink:href="#DejaVuSans-31" transform="translate(2329.980469 0)"/>
    <use xlink:href="#DejaVuSans-20" transform="translate(2393.603516 0)"/>
    <use xlink:href="#DejaVuSans-20" transform="translate(2425.390625 0)"/>
    <use xlink:href="#DejaVuSans-20" transform="translate(2457.177734 0)"/>
    <use xlink:href="#DejaVuSans-4d" transform="translate(2488.964844 0)"/>
    <use xlink:href="#DejaVuSans-20" transform="translate(2575.244141 0)"/>
    <use xlink:href="#DejaVuSans-41" transform="translate(2607.03125 0)"/>
    <use xlink:href="#DejaVuSans-20" transform="translate(2675.439453 0)"/>
    <use xlink:href="#DejaVuSans-52" transform="translate(2707.226562 0)"/>
    <use xlink:href="#DejaVuSans-20" transform="translate(2776.708984 0)"/>
    <use xlink:href="#DejaVuSans-43" transform="translate(2808.496094 0)"/>
    <use xlink:href="#DejaVuSans-20" transform="translate(2878.320312 0)"/>
    <use xlink:href="#DejaVuSans-48" transform="translate(2910.107422 0)"/>
   </g>
  </g>
  <g id="text_5">
   <!-- 215 -->
   <g style="fill: #f2ede1" transform="translate(129.038438 550.44) scale(0.44 -0.44)">
    <defs>
     <path id="DejaVuSans-Bold-32" d="M 1844 884 
L 3897 884 
L 3897 0 
L 506 0 
L 506 884 
L 2209 2388 
Q 2438 2594 2547 2791 
Q 2656 2988 2656 3200 
Q 2656 3528 2436 3728 
Q 2216 3928 1850 3928 
Q 1569 3928 1234 3808 
Q 900 3688 519 3450 
L 519 4475 
Q 925 4609 1322 4679 
Q 1719 4750 2100 4750 
Q 2938 4750 3402 4381 
Q 3866 4013 3866 3353 
Q 3866 2972 3669 2642 
Q 3472 2313 2841 1759 
L 1844 884 
z
" transform="scale(0.015625)"/>
     <path id="DejaVuSans-Bold-31" d="M 750 831 
L 1813 831 
L 1813 3847 
L 722 3622 
L 722 4441 
L 1806 4666 
L 2950 4666 
L 2950 831 
L 4013 831 
L 4013 0 
L 750 0 
L 750 831 
z
" transform="scale(0.015625)"/>
     <path id="DejaVuSans-Bold-35" d="M 678 4666 
L 3669 4666 
L 3669 3781 
L 1638 3781 
L 1638 3059 
Q 1775 3097 1914 3117 
Q 2053 3138 2203 3138 
Q 3056 3138 3531 2711 
Q 4006 2284 4006 1522 
Q 4006 766 3489 337 
Q 2972 -91 2053 -91 
Q 1656 -91 1267 -14 
Q 878 63 494 219 
L 494 1166 
Q 875 947 1217 837 
Q 1559 728 1863 728 
Q 2300 728 2551 942 
Q 2803 1156 2803 1522 
Q 2803 1891 2551 2103 
Q 2300 2316 1863 2316 
Q 1603 2316 1309 2248 
Q 1016 2181 678 2041 
L 678 4666 
z
" transform="scale(0.015625)"/>
    </defs>
    <use xlink:href="#DejaVuSans-Bold-32"/>
    <use xlink:href="#DejaVuSans-Bold-31" transform="translate(69.580078 0)"/>
    <use xlink:href="#DejaVuSans-Bold-35" transform="translate(139.160156 0)"/>
   </g>
  </g>
  <g id="text_6">
   <!-- KILOMETRES -->
   <g style="fill: #e4513f" transform="translate(137.518477 587.664) scale(0.105 -0.105)">
    <defs>
     <path id="DejaVuSans-Bold-49" d="M 588 4666 
L 1791 4666 
L 1791 0 
L 588 0 
L 588 4666 
z
" transform="scale(0.015625)"/>
     <path id="DejaVuSans-Bold-53" d="M 3834 4519 
L 3834 3531 
Q 3450 3703 3084 3790 
Q 2719 3878 2394 3878 
Q 1963 3878 1756 3759 
Q 1550 3641 1550 3391 
Q 1550 3203 1689 3098 
Q 1828 2994 2194 2919 
L 2706 2816 
Q 3484 2659 3812 2340 
Q 4141 2022 4141 1434 
Q 4141 663 3683 286 
Q 3225 -91 2284 -91 
Q 1841 -91 1394 -6 
Q 947 78 500 244 
L 500 1259 
Q 947 1022 1364 901 
Q 1781 781 2169 781 
Q 2563 781 2772 912 
Q 2981 1044 2981 1288 
Q 2981 1506 2839 1625 
Q 2697 1744 2272 1838 
L 1806 1941 
Q 1106 2091 782 2419 
Q 459 2747 459 3303 
Q 459 4000 909 4375 
Q 1359 4750 2203 4750 
Q 2588 4750 2994 4692 
Q 3400 4634 3834 4519 
z
" transform="scale(0.015625)"/>
    </defs>
    <use xlink:href="#DejaVuSans-Bold-4b"/>
    <use xlink:href="#DejaVuSans-Bold-49" transform="translate(77.490234 0)"/>
    <use xlink:href="#DejaVuSans-Bold-4c" transform="translate(114.697266 0)"/>
    <use xlink:href="#DejaVuSans-Bold-4f" transform="translate(174.792969 0)"/>
    <use xlink:href="#DejaVuSans-Bold-4d" transform="translate(259.802734 0)"/>
    <use xlink:href="#DejaVuSans-Bold-45" transform="translate(359.314453 0)"/>
    <use xlink:href="#DejaVuSans-Bold-54" transform="translate(427.625 0)"/>
    <use xlink:href="#DejaVuSans-Bold-52" transform="translate(495.837891 0)"/>
    <use xlink:href="#DejaVuSans-Bold-45" transform="translate(572.839844 0)"/>
    <use xlink:href="#DejaVuSans-Bold-53" transform="translate(641.150391 0)"/>
   </g>
  </g>
  <g id="text_7">
   <!-- 7,394 -->
   <g style="fill: #f2ede1" transform="translate(254.414688 550.44) scale(0.44 -0.44)">
    <defs>
     <path id="DejaVuSans-Bold-37" d="M 428 4666 
L 3944 4666 
L 3944 3988 
L 2125 0 
L 953 0 
L 2675 3781 
L 428 3781 
L 428 4666 
z
" transform="scale(0.015625)"/>
     <path id="DejaVuSans-Bold-2c" d="M 653 1209 
L 1778 1209 
L 1778 256 
L 1006 -909 
L 341 -909 
L 653 256 
L 653 1209 
z
" transform="scale(0.015625)"/>
     <path id="DejaVuSans-Bold-33" d="M 2981 2516 
Q 3453 2394 3698 2092 
Q 3944 1791 3944 1325 
Q 3944 631 3412 270 
Q 2881 -91 1863 -91 
Q 1503 -91 1142 -33 
Q 781 25 428 141 
L 428 1069 
Q 766 900 1098 814 
Q 1431 728 1753 728 
Q 2231 728 2486 893 
Q 2741 1059 2741 1369 
Q 2741 1688 2480 1852 
Q 2219 2016 1709 2016 
L 1228 2016 
L 1228 2791 
L 1734 2791 
Q 2188 2791 2409 2933 
Q 2631 3075 2631 3366 
Q 2631 3634 2415 3781 
Q 2200 3928 1806 3928 
Q 1516 3928 1219 3862 
Q 922 3797 628 3669 
L 628 4550 
Q 984 4650 1334 4700 
Q 1684 4750 2022 4750 
Q 2931 4750 3382 4451 
Q 3834 4153 3834 3553 
Q 3834 3144 3618 2883 
Q 3403 2622 2981 2516 
z
" transform="scale(0.015625)"/>
     <path id="DejaVuSans-Bold-39" d="M 641 103 
L 641 966 
Q 928 831 1190 764 
Q 1453 697 1709 697 
Q 2247 697 2547 995 
Q 2847 1294 2900 1881 
Q 2688 1725 2447 1647 
Q 2206 1569 1925 1569 
Q 1209 1569 770 1986 
Q 331 2403 331 3084 
Q 331 3838 820 4291 
Q 1309 4744 2131 4744 
Q 3044 4744 3544 4128 
Q 4044 3513 4044 2388 
Q 4044 1231 3459 570 
Q 2875 -91 1856 -91 
Q 1528 -91 1228 -42 
Q 928 6 641 103 
z
M 2125 2350 
Q 2441 2350 2600 2554 
Q 2759 2759 2759 3169 
Q 2759 3575 2600 3781 
Q 2441 3988 2125 3988 
Q 1809 3988 1650 3781 
Q 1491 3575 1491 3169 
Q 1491 2759 1650 2554 
Q 1809 2350 2125 2350 
z
" transform="scale(0.015625)"/>
     <path id="DejaVuSans-Bold-34" d="M 2356 3675 
L 1038 1722 
L 2356 1722 
L 2356 3675 
z
M 2156 4666 
L 3494 4666 
L 3494 1722 
L 4159 1722 
L 4159 850 
L 3494 850 
L 3494 0 
L 2356 0 
L 2356 850 
L 288 850 
L 288 1881 
L 2156 4666 
z
" transform="scale(0.015625)"/>
    </defs>
    <use xlink:href="#DejaVuSans-Bold-37"/>
    <use xlink:href="#DejaVuSans-Bold-2c" transform="translate(69.580078 0)"/>
    <use xlink:href="#DejaVuSans-Bold-33" transform="translate(107.568359 0)"/>
    <use xlink:href="#DejaVuSans-Bold-39" transform="translate(177.148438 0)"/>
    <use xlink:href="#DejaVuSans-Bold-34" transform="translate(246.728516 0)"/>
   </g>
  </g>
  <g id="text_8">
   <!-- METRES  D+ -->
   <g style="fill: #e4513f" transform="translate(287.784844 587.664) scale(0.105 -0.105)">
    <defs>
     <path id="DejaVuSans-Bold-2b" d="M 3053 4013 
L 3053 2375 
L 4684 2375 
L 4684 1638 
L 3053 1638 
L 3053 0 
L 2309 0 
L 2309 1638 
L 678 1638 
L 678 2375 
L 2309 2375 
L 2309 4013 
L 3053 4013 
z
" transform="scale(0.015625)"/>
    </defs>
    <use xlink:href="#DejaVuSans-Bold-4d"/>
    <use xlink:href="#DejaVuSans-Bold-45" transform="translate(99.511719 0)"/>
    <use xlink:href="#DejaVuSans-Bold-54" transform="translate(167.822266 0)"/>
    <use xlink:href="#DejaVuSans-Bold-52" transform="translate(236.035156 0)"/>
    <use xlink:href="#DejaVuSans-Bold-45" transform="translate(313.037109 0)"/>
    <use xlink:href="#DejaVuSans-Bold-53" transform="translate(381.347656 0)"/>
    <use xlink:href="#DejaVuSans-Bold-20" transform="translate(453.369141 0)"/>
    <use xlink:href="#DejaVuSans-Bold-20" transform="translate(488.183594 0)"/>
    <use xlink:href="#DejaVuSans-Bold-44" transform="translate(522.998047 0)"/>
    <use xlink:href="#DejaVuSans-Bold-2b" transform="translate(606.005859 0)"/>
   </g>
  </g>
  <g id="text_9">
   <!-- 38 -->
   <g style="fill: #f2ede1" transform="translate(442.425625 550.44) scale(0.44 -0.44)">
    <defs>
     <path id="DejaVuSans-Bold-38" d="M 2228 2088 
Q 1891 2088 1709 1903 
Q 1528 1719 1528 1375 
Q 1528 1031 1709 848 
Q 1891 666 2228 666 
Q 2563 666 2741 848 
Q 2919 1031 2919 1375 
Q 2919 1722 2741 1905 
Q 2563 2088 2228 2088 
z
M 1350 2484 
Q 925 2613 709 2878 
Q 494 3144 494 3541 
Q 494 4131 934 4440 
Q 1375 4750 2228 4750 
Q 3075 4750 3515 4442 
Q 3956 4134 3956 3541 
Q 3956 3144 3739 2878 
Q 3522 2613 3097 2484 
Q 3572 2353 3814 2058 
Q 4056 1763 4056 1313 
Q 4056 619 3595 264 
Q 3134 -91 2228 -91 
Q 1319 -91 855 264 
Q 391 619 391 1313 
Q 391 1763 633 2058 
Q 875 2353 1350 2484 
z
M 1631 3419 
Q 1631 3141 1786 2991 
Q 1941 2841 2228 2841 
Q 2509 2841 2662 2991 
Q 2816 3141 2816 3419 
Q 2816 3697 2662 3845 
Q 2509 3994 2228 3994 
Q 1941 3994 1786 3844 
Q 1631 3694 1631 3419 
z
" transform="scale(0.015625)"/>
    </defs>
    <use xlink:href="#DejaVuSans-Bold-33"/>
    <use xlink:href="#DejaVuSans-Bold-38" transform="translate(69.580078 0)"/>
   </g>
  </g>
  <g id="text_10">
   <!-- HOURS -->
   <g style="fill: #e4513f" transform="translate(452.096602 587.664) scale(0.105 -0.105)">
    <use xlink:href="#DejaVuSans-Bold-48"/>
    <use xlink:href="#DejaVuSans-Bold-4f" transform="translate(83.691406 0)"/>
    <use xlink:href="#DejaVuSans-Bold-55" transform="translate(168.701172 0)"/>
    <use xlink:href="#DejaVuSans-Bold-52" transform="translate(249.902344 0)"/>
    <use xlink:href="#DejaVuSans-Bold-53" transform="translate(326.904297 0)"/>
   </g>
  </g>
  <g id="text_11">
   <!-- 29 SESSIONS   →   28 . 06 . 2026 -->
   <g style="fill: #f2ede1" transform="translate(180.29875 673.2) scale(0.16 -0.16)">
    <defs>
     <path id="DejaVuSans-Bold-2192" d="M 5050 2225 
L 5050 1788 
L 3822 559 
L 3369 1013 
L 3988 1631 
L 366 1631 
L 366 2381 
L 3988 2381 
L 3369 3000 
L 3822 3453 
L 5050 2225 
z
" transform="scale(0.015625)"/>
     <path id="DejaVuSans-Bold-2e" d="M 653 1209 
L 1778 1209 
L 1778 0 
L 653 0 
L 653 1209 
z
" transform="scale(0.015625)"/>
     <path id="DejaVuSans-Bold-30" d="M 2944 2338 
Q 2944 3213 2780 3570 
Q 2616 3928 2228 3928 
Q 1841 3928 1675 3570 
Q 1509 3213 1509 2338 
Q 1509 1453 1675 1090 
Q 1841 728 2228 728 
Q 2613 728 2778 1090 
Q 2944 1453 2944 2338 
z
M 4147 2328 
Q 4147 1169 3647 539 
Q 3147 -91 2228 -91 
Q 1306 -91 806 539 
Q 306 1169 306 2328 
Q 306 3491 806 4120 
Q 1306 4750 2228 4750 
Q 3147 4750 3647 4120 
Q 4147 3491 4147 2328 
z
" transform="scale(0.015625)"/>
     <path id="DejaVuSans-Bold-36" d="M 2316 2303 
Q 2000 2303 1842 2098 
Q 1684 1894 1684 1484 
Q 1684 1075 1842 870 
Q 2000 666 2316 666 
Q 2634 666 2792 870 
Q 2950 1075 2950 1484 
Q 2950 1894 2792 2098 
Q 2634 2303 2316 2303 
z
M 3803 4544 
L 3803 3681 
Q 3506 3822 3243 3889 
Q 2981 3956 2731 3956 
Q 2194 3956 1894 3657 
Q 1594 3359 1544 2772 
Q 1750 2925 1990 3001 
Q 2231 3078 2516 3078 
Q 3231 3078 3670 2659 
Q 4109 2241 4109 1563 
Q 4109 813 3618 361 
Q 3128 -91 2303 -91 
Q 1394 -91 895 523 
Q 397 1138 397 2266 
Q 397 3422 980 4083 
Q 1563 4744 2578 4744 
Q 2900 4744 3203 4694 
Q 3506 4644 3803 4544 
z
" transform="scale(0.015625)"/>
    </defs>
    <use xlink:href="#DejaVuSans-Bold-32"/>
    <use xlink:href="#DejaVuSans-Bold-39" transform="translate(69.580078 0)"/>
    <use xlink:href="#DejaVuSans-Bold-20" transform="translate(139.160156 0)"/>
    <use xlink:href="#DejaVuSans-Bold-53" transform="translate(173.974609 0)"/>
    <use xlink:href="#DejaVuSans-Bold-45" transform="translate(245.996094 0)"/>
    <use xlink:href="#DejaVuSans-Bold-53" transform="translate(314.306641 0)"/>
    <use xlink:href="#DejaVuSans-Bold-53" transform="translate(381.828125 0)"/>
    <use xlink:href="#DejaVuSans-Bold-49" transform="translate(453.849609 0)"/>
    <use xlink:href="#DejaVuSans-Bold-4f" transform="translate(491.056641 0)"/>
    <use xlink:href="#DejaVuSans-Bold-4e" transform="translate(576.066406 0)"/>
    <use xlink:href="#DejaVuSans-Bold-53" transform="translate(659.757812 0)"/>
    <use xlink:href="#DejaVuSans-Bold-20" transform="translate(731.779297 0)"/>
    <use xlink:href="#DejaVuSans-Bold-20" transform="translate(766.59375 0)"/>
    <use xlink:href="#DejaVuSans-Bold-20" transform="translate(801.408203 0)"/>
    <use xlink:href="#DejaVuSans-Bold-2192" transform="translate(836.222656 0)"/>
    <use xlink:href="#DejaVuSans-Bold-20" transform="translate(920.011719 0)"/>
    <use xlink:href="#DejaVuSans-Bold-20" transform="translate(954.826172 0)"/>
    <use xlink:href="#DejaVuSans-Bold-20" transform="translate(989.640625 0)"/>
    <use xlink:href="#DejaVuSans-Bold-32" transform="translate(1024.455078 0)"/>
    <use xlink:href="#DejaVuSans-Bold-38" transform="translate(1094.035156 0)"/>
    <use xlink:href="#DejaVuSans-Bold-20" transform="translate(1163.615234 0)"/>
    <use xlink:href="#DejaVuSans-Bold-2e" transform="translate(1198.429688 0)"/>
    <use xlink:href="#DejaVuSans-Bold-20" transform="translate(1236.417969 0)"/>
    <use xlink:href="#DejaVuSans-Bold-30" transform="translate(1271.232422 0)"/>
    <use xlink:href="#DejaVuSans-Bold-36" transform="translate(1340.8125 0)"/>
    <use xlink:href="#DejaVuSans-Bold-20" transform="translate(1410.392578 0)"/>
    <use xlink:href="#DejaVuSans-Bold-2e" transform="translate(1445.207031 0)"/>
    <use xlink:href="#DejaVuSans-Bold-20" transform="translate(1483.195312 0)"/>
    <use xlink:href="#DejaVuSans-Bold-32" transform="translate(1518.009766 0)"/>
    <use xlink:href="#DejaVuSans-Bold-30" transform="translate(1587.589844 0)"/>
    <use xlink:href="#DejaVuSans-Bold-32" transform="translate(1657.169922 0)"/>
    <use xlink:href="#DejaVuSans-Bold-36" transform="translate(1726.75 0)"/>
   </g>
  </g>
 </g>
 <defs>
  <clipPath id="p8b28e472e8">
   <rect x="84.24" y="213.84" width="479.52" height="221.76"/>
  </clipPath>
 </defs>
</svg>
